<?xml version="1.0" encoding="UTF-8"?> <svg xmlns="http://www.w3.org/2000/svg" width="810" height="1041" viewBox="0 0 810 1041" fill="none"> <path d="M213.224 509.926L0 555.284L213.224 600.636L426.441 555.284L213.224 509.926Z" fill="#FFCCAA"></path> <path d="M426.441 555.284V883.571L213.224 928.922V600.636L426.441 555.284Z" fill="#B84634"></path> <path d="M0 555.284L213.224 600.636V928.922L0 883.571V555.284Z" fill="#F58370"></path> <path d="M213.224 563.917C243.232 563.917 304.239 561.51 319.949 556.651C325.15 555.044 321.966 536.594 314.433 532.397C321.884 512.321 322.036 499.516 298.313 485.256C291.245 481.009 283.031 471.809 279.526 463.528C275.214 453.339 291.712 446.603 283.624 442.034C278.057 438.883 256.591 430.471 252.348 333.649C251.409 312.306 251.85 303.131 254.138 303.112C271.626 302.986 272.862 298.279 273.858 287.201C275.201 272.216 265.032 282.097 264.15 273.968C263.147 264.573 270.359 258.845 252.222 258.076C248.244 256.085 246.46 246.399 246.712 242.921C254.662 239.94 251.182 235.473 245.716 234.225C245.59 230.173 279.557 154.493 277.817 141.077C275.226 121.051 249.65 122.645 236.316 119.967C239.966 109.759 231.348 107.792 224.886 107.049C229.879 102.991 233.334 101.088 236.568 98.1008C234.57 90.6462 224.767 77.5896 224.767 74.8548C230.491 75.5416 243.68 81.9061 243.774 78.7302C244.052 69.9585 245.275 56.3159 244.253 49.3402C243.963 47.3363 229.608 53.1211 225.031 53.3353C227.868 46.933 235.818 26.3147 236.814 23.8319C237.533 22.0549 222.15 16.6356 218.128 13.0627C224.155 9.91199 221.053 0.106934 213.236 0.106934C205.419 0.106934 202.317 9.9309 208.338 13.0627C204.303 16.6356 188.921 22.0423 189.639 23.8382C190.635 26.321 198.585 46.9393 201.428 53.3416C196.845 53.1526 182.515 47.3426 182.2 49.3465C181.179 56.3222 182.402 69.9648 182.679 78.7365C182.786 81.8872 195.962 75.5479 201.693 74.8611C201.693 77.5959 191.89 90.6525 189.891 98.1071C193.119 101.094 196.58 102.997 201.567 107.055C195.105 107.799 186.487 109.765 190.137 119.973C176.81 122.651 151.233 121.057 148.636 141.083C146.896 154.499 180.864 230.179 180.738 234.231C175.272 235.491 171.792 239.947 179.748 242.927C179.994 246.406 178.21 256.091 174.232 258.082C156.094 258.826 163.306 264.579 162.304 273.974C161.434 282.122 151.252 272.241 152.595 287.207C153.591 298.285 154.827 302.993 172.315 303.119C174.603 303.119 175.045 312.312 174.112 333.655C169.863 430.452 148.397 438.89 142.83 442.04C134.741 446.609 151.24 453.345 146.928 463.535C143.422 471.815 135.208 481.015 128.141 485.262C104.418 499.522 104.575 512.327 112.021 532.403C104.487 536.6 101.304 555.051 106.511 556.658C122.202 561.51 183.209 563.917 213.224 563.917Z" fill="#FED160"></path> <path d="M212.587 564.251C242.595 564.251 304.239 561.51 319.949 556.651C325.15 555.045 321.966 536.594 314.433 532.397C321.884 512.321 322.036 499.516 298.313 485.256C291.245 481.009 283.031 471.809 279.526 463.529C275.214 453.339 291.712 446.603 283.624 442.034C278.057 438.884 256.591 430.471 252.348 333.649C251.409 312.306 251.85 303.131 254.138 303.112C271.627 302.986 272.862 298.279 273.858 287.201C275.201 272.216 265.032 282.097 264.15 273.968C263.147 264.573 270.359 258.845 252.222 258.076C248.244 256.085 246.46 246.399 246.712 242.921C254.662 239.94 251.182 235.473 245.716 234.225C245.59 230.173 279.557 154.493 277.817 141.077C275.226 121.051 249.65 122.645 236.316 119.967C239.966 109.759 231.348 107.793 224.887 107.049C229.88 102.991 233.334 101.088 236.568 98.101C234.57 90.6464 224.767 77.5898 224.767 74.855C230.491 75.5418 243.68 81.9063 243.774 78.7303C244.052 69.9587 245.275 56.3161 244.253 49.3404C243.963 47.3365 229.608 53.1212 225.032 53.3355C227.868 46.9332 235.818 26.3149 236.814 23.8321C237.533 22.0551 222.15 16.6358 218.128 13.0629C218.797 13.6552 220.852 10.1768 220.997 9.73574C221.455 8.22477 221.377 6.60217 220.776 5.14199C219.251 1.26029 215.607 0.138632 211.824 0C210.563 4.14005 215.941 8.82203 213.533 12.4013C212.99 13.2078 212.139 13.7498 211.528 14.5059C210.305 15.9994 210.172 18.0789 210.122 20.0071C209.756 34.7021 211.099 49.3845 212.442 64.0228C213.232 72.6641 214.024 81.3055 214.819 89.9469C215.235 94.5155 215.449 99.7268 212.228 103.004C209.454 105.833 205.211 106.387 201.51 107.156C204.032 107.446 206.554 106.803 209.075 106.86C211.597 106.917 214.434 107.982 215.291 110.357C216.092 112.563 214.825 115.083 212.921 116.451C211.017 117.818 208.634 118.285 206.327 118.663C201.863 119.389 197.373 119.904 192.854 120.207C197.973 120.099 203.094 120.282 208.193 120.755C210.992 121.013 213.867 121.385 216.275 122.885C220.568 125.556 222.094 130.988 223.027 135.954C226.504 154.543 226.605 173.607 223.323 192.232C221.785 201.01 219.295 209.549 216.729 218.068C215.611 221.708 213.761 225.081 211.291 227.98C208.821 230.879 205.785 233.242 202.368 234.924H212.536C213.596 234.924 214.781 234.975 215.499 235.75C216.363 236.683 216.073 238.271 215.216 239.191C214.274 240.048 213.121 240.64 211.874 240.905C207.677 242.122 203.376 242.951 199.026 243.381C195.502 243.734 192.148 243.091 188.624 243.337C187.917 243.329 187.22 243.512 186.607 243.866C186.308 244.055 186.085 244.342 185.976 244.679C185.868 245.015 185.881 245.379 186.014 245.706C187.351 248.176 194.714 247.723 196.933 248.309C198.913 248.832 200.817 250.054 201.649 251.919C201.887 252.377 201.962 252.901 201.863 253.407C201.649 253.934 201.268 254.376 200.779 254.667C198.94 255.983 196.793 256.804 194.544 257.049C193.878 257.061 193.22 257.196 192.602 257.446C192.296 257.578 192.044 257.81 191.888 258.105C191.732 258.399 191.682 258.738 191.745 259.065C192.01 259.916 193.144 260.055 194.04 260.048C197.511 260.059 200.972 260.433 204.366 261.164C206.938 261.687 210.04 261.794 211.931 263.974C212.697 265.004 213.261 266.169 213.596 267.408C213.877 268.137 214.057 268.9 214.131 269.677C214.251 271.914 212.574 273.937 210.557 274.907C208.54 275.878 206.232 276.01 203.988 276.079C201.744 276.149 199.455 276.193 197.368 277.012C196.82 277.22 196.196 277.724 196.423 278.272C196.599 278.701 197.16 278.764 197.62 278.764H204.026C209.977 278.764 216.773 279.677 218.816 286.325C219.938 289.968 218.33 294.082 215.506 296.641C212.681 299.199 208.842 300.39 205.047 300.768C201.252 301.146 197.425 300.768 193.617 300.592C188.574 300.359 172.983 302.098 173.62 303.787C174.194 305.318 174.282 308.11 174.427 310.718C174.591 313.705 174.604 318.141 174.503 321.469C174.295 328.759 206.024 326.995 221.942 348.848C234.614 366.266 239.475 392.65 242.387 421.529C245.697 454.297 188.309 452.06 171.867 451.203C145.163 449.817 134.937 455.74 186.506 470.662C213.734 478.539 246.088 485.01 257.543 500.367C261.13 505.187 293.351 548.1 127.561 535.138C103.794 533.279 109.279 557.074 142.893 561.308C148.781 562.045 153.61 562.386 158.061 562.619C176.211 563.64 194.405 564.251 212.587 564.251Z" fill="#DD8F1E"></path> <path d="M558.617 575.071L307.233 628.538L558.617 682.006L810 628.538L558.617 575.071Z" fill="#6DA3C1"></path> <path d="M810 628.539V851.081L558.617 904.548V682.006L810 628.539Z" fill="#063651"></path> <path d="M307.233 628.539L558.617 682.006V904.548L307.233 851.081V628.539Z" fill="#105074"></path> <path d="M529.92 634.909C559.134 634.909 616.717 632.565 632.011 627.845C637.055 626.276 633.978 608.311 626.64 604.234C633.89 584.699 634.041 572.222 610.949 558.34C604.071 554.206 594.267 545.252 590.857 537.186C586.658 527.268 602.721 520.714 594.847 516.265C589.432 513.203 564.927 505.912 560.804 411.661C559.896 390.867 559.909 380.91 562.134 380.898C581.829 381.143 585.902 382.284 585.902 369.555C585.902 361.634 575.348 363.203 575.72 360.506C576.401 355.528 581.066 346.271 574.068 343.895C563.427 340.272 566.434 348.735 564.398 334.027C563.767 329.333 567.789 332.03 568.023 327.014C568.256 321.998 560.458 328.274 561.681 311.853C566.44 246.904 592.799 238.825 587.856 233.217C584.786 229.719 578.4 236.103 576.615 234.969C574.365 233.563 578.141 228.736 575.027 228.636C568.237 228.409 567.462 232.643 560.527 233.614C557.841 224.162 549.431 209.851 534.944 206.681C547.395 198.313 540.341 184.733 529.901 184.733C519.461 184.733 512.413 198.313 524.857 206.681C510.357 209.832 501.96 224.136 499.274 233.614C492.34 232.643 491.577 228.409 484.775 228.636C481.66 228.736 485.436 233.563 483.186 234.969C481.377 236.103 474.99 229.719 471.945 233.217C467.003 238.844 493.38 246.904 498.133 311.903C499.337 328.337 491.564 322.086 491.791 327.064C492.018 332.042 496.066 329.383 495.416 334.078C493.38 348.785 496.387 340.323 485.745 343.946C478.748 346.322 483.413 355.578 484.094 360.557C484.466 363.254 473.906 361.684 473.906 369.605C473.906 382.309 477.985 381.169 497.679 380.948C499.905 380.948 499.917 390.936 499.01 411.712C494.874 505.937 470.369 513.228 464.966 516.316C457.092 520.765 473.162 527.318 468.957 537.237C465.54 545.302 455.718 554.251 448.865 558.391C425.773 572.254 425.924 584.737 433.174 604.284C425.836 608.367 422.74 626.339 427.803 627.896C443.122 632.565 500.705 634.909 529.92 634.909Z" fill="#F58370"></path> <path d="M529.919 634.909C559.134 634.909 616.717 632.565 632.011 627.845C637.055 626.276 633.978 608.311 626.64 604.234C633.89 584.699 634.041 572.222 610.948 558.34C604.07 554.206 594.267 545.252 590.857 537.186C586.658 527.268 602.721 520.714 594.847 516.265C589.432 513.203 564.927 505.912 560.804 411.661C559.896 390.866 559.909 380.91 562.134 380.897C581.829 381.143 585.902 382.284 585.902 369.555C585.902 361.634 575.348 363.203 575.72 360.506C576.401 355.528 581.066 346.271 574.068 343.895C563.427 340.272 566.434 348.735 564.398 334.027C563.767 329.333 567.789 332.03 568.023 327.014C568.256 321.998 560.457 328.274 561.68 311.852C566.44 246.903 592.798 238.825 587.856 233.217C584.786 229.719 578.399 236.103 576.615 234.968C574.365 233.563 578.141 228.736 575.027 228.635C568.237 228.409 567.461 232.643 560.527 233.614C557.841 224.161 549.431 209.851 534.944 206.681C536.488 207.022 539.823 201.987 540.397 200.808C541.42 198.786 541.782 196.494 541.431 194.255C540.87 190.846 536.924 184.727 532.807 185.174C533.368 186.467 533.657 187.861 533.657 189.27C533.657 190.679 533.368 192.073 532.807 193.366C532.229 194.65 531.381 195.794 530.322 196.722C529.262 197.649 528.016 198.338 526.666 198.741C524.296 199.422 521.774 199.164 519.328 198.893C519.246 198.893 523.029 205.024 523.823 205.723C526.446 208.03 529.976 209.038 532.479 211.489C534.755 213.72 535.7 216.94 536.558 220.015C537.171 222.183 537.781 224.353 538.386 226.525C538.808 228.037 538.777 230.305 537.213 230.463C536.911 230.47 536.61 230.414 536.329 230.3C536.048 230.187 535.793 230.017 535.581 229.801C533.343 227.879 532.164 224.098 529.207 224.086C526.994 224.086 525.563 226.31 524.082 227.961C519.215 233.387 510.975 233.759 503.681 233.733C500.309 233.771 496.966 233.106 493.865 231.78C490.713 230.318 488.551 228.516 484.806 228.629C481.692 228.73 485.468 233.557 483.217 234.962C481.408 236.096 475.022 229.713 471.977 233.21C469.594 235.914 475.022 240.999 476.446 242.921C481.137 249.266 484.289 256.866 490.076 262.292C498.511 270.187 509.14 275.228 519.265 280.805C529.39 286.382 539.489 292.917 545.668 302.684C547.307 305.28 548.681 308.324 548.12 311.342C547.294 315.785 542.616 318.463 538.178 319.294C533.74 320.126 529.087 319.742 524.756 321.021C521.787 321.903 523.35 324.115 525.689 324.449C527.205 324.663 528.736 324.745 530.266 324.695C532.012 324.632 533.828 324.405 535.436 325.092C537.043 325.779 538.216 327.82 537.295 329.295C536.589 330.423 535.089 330.675 533.771 330.814C528.186 331.4 522.569 331.765 516.983 332.206C510.975 332.672 505.156 331.387 499.167 331.362C498.379 331.362 497.307 331.677 497.402 332.458C497.452 332.943 497.957 333.233 498.411 333.416C502.975 335.306 508.081 335.306 513.024 335.206L532.422 334.922C533.201 334.846 533.985 334.967 534.704 335.275C536.009 335.974 536.337 337.796 535.833 339.182C533.879 344.607 524.832 342.818 520.545 343.372C520.057 343.382 519.586 343.55 519.202 343.851C518.977 344.121 518.854 344.461 518.854 344.812C518.854 345.163 518.977 345.504 519.202 345.773C521.825 349.189 527.631 346.668 530.638 349.277C531.861 350.335 532.271 352.049 532.492 353.688C532.681 355.074 532.687 356.719 531.59 357.601C530.812 358.1 529.897 358.343 528.974 358.294L512.948 359.05C511.687 359.107 510.055 359.542 510.042 360.796C510.042 361.785 511.101 362.384 512.04 362.686C514.45 363.469 516.994 363.756 519.517 363.531C520.822 363.417 522.184 363.171 523.413 363.625C524.112 363.935 524.728 364.404 525.211 364.995C525.695 365.586 526.034 366.283 526.2 367.028C526.519 368.52 526.6 370.054 526.439 371.571C526.464 372.791 526.209 374 525.696 375.106C524.933 376.461 523.451 377.243 522.008 377.822C515.47 380.425 508.226 380.299 501.203 380.627C497.755 380.79 499.312 382.517 499.388 384.76C499.558 388.894 499.665 393.122 499.552 396.947C499.413 401.314 506.02 403.734 509.26 406.399C540.908 432.645 568.741 496.857 549.954 516.675C541.179 525.944 500.151 525.327 480.09 522.151C477.928 521.811 474.99 521.88 474.416 523.997C473.994 525.509 475.211 526.953 476.383 527.999C496.626 546.008 528.999 538.793 552.476 552.316C559.152 556.153 564.877 561.415 570.544 566.626C579.15 574.541 604.587 606.792 555.263 607.416C516.624 607.901 477.966 610.8 439.396 608.399C416.827 606.994 437.505 629.824 463.283 632.464C467.986 632.943 472.74 633.094 477.43 633.359C494.886 634.323 512.419 634.909 529.919 634.909Z" fill="#B84634"></path> <path d="M306.962 714.497L106.221 757.195L306.962 799.894L507.703 757.195L306.962 714.497Z" fill="#FBEEBD"></path> <path d="M507.703 757.195V998.301L306.962 1041V799.894L507.703 757.195Z" fill="#DD8F1E"></path> <path d="M106.221 757.195L306.962 799.894V1041L106.221 998.301V757.195Z" fill="#FED160"></path> <path d="M371.411 418.851C366.809 416.778 359.861 415.738 358.021 416.129C356.961 416.356 356.299 427.472 354.761 433.515C354.604 434.145 342.487 432.002 342.569 430.862C342.72 428.688 346.105 413.968 344.744 413.734C332.715 411.686 300.198 411.617 286.53 413.665C285.849 413.766 287.602 426.224 288.295 433.363C288.421 434.624 276.525 435.254 276.279 434.416C274.753 429.034 273.581 420.584 272.774 415.556C272.616 414.56 244.134 417.849 237.59 420.37C234.973 421.372 237.634 423.287 244.915 454.505C249.019 471.979 256.446 466.181 252.941 477.373C251.484 482.036 249.309 488.967 253.899 493.441C257.246 496.699 262.561 496.075 264.358 500.323C266.154 504.57 260.254 504.519 262.674 512.295C264.219 517.236 267.573 515.27 270.794 519.227C272.749 521.609 271.759 536.468 271.141 555.511C268.336 641.897 249.272 649.617 244.342 652.478C237.174 656.637 251.957 662.478 248.212 671.609C245.167 679.032 237.936 687.325 231.676 691.181C210.658 704.143 210.929 715.561 217.775 733.401C211.093 737.226 208.445 753.71 213.104 755.09C227.162 759.262 280.459 760.806 308.374 760.491C335.142 760.188 389.536 757.422 403.493 752.929C408.121 751.442 405.095 735.014 398.33 731.347C404.773 713.362 404.779 701.938 383.477 689.461C377.129 685.743 369.709 677.62 366.5 670.267C362.547 661.224 377.217 655.049 369.936 651.054C364.943 648.306 345.708 641.015 340.936 554.717C339.889 535.623 338.54 520.815 340.432 518.389C343.584 514.381 346.963 516.272 348.394 511.3C350.638 503.492 344.756 503.644 346.446 499.39C348.135 495.137 353.469 495.609 356.741 492.276C361.223 487.701 358.897 480.813 357.333 476.188C353.551 465.079 361.166 470.7 364.842 453.144C371.436 421.769 373.97 419.998 371.411 418.851Z" fill="#145F88"></path> <path d="M310.404 460.668C307.315 456.257 305.821 412.298 303.507 412.367C301.339 412.436 292.286 412.707 286.53 413.665C285.849 413.779 287.602 426.224 288.295 433.363C288.421 434.624 276.525 435.254 276.279 434.416C274.753 429.034 273.581 420.584 272.774 415.556C272.616 414.56 244.134 417.849 237.59 420.37C234.973 421.372 237.634 423.287 244.915 454.505C249.019 471.979 256.446 466.181 252.941 477.373C251.484 482.036 249.309 488.967 253.899 493.441C257.246 496.699 262.561 496.075 264.358 500.323C266.154 504.57 260.254 504.519 262.674 512.295C264.219 517.236 267.573 515.27 270.794 519.227C272.749 521.609 271.759 536.468 271.141 555.511C268.336 641.897 249.272 649.617 244.342 652.478C237.174 656.636 251.957 662.478 248.212 671.609C245.167 679.032 237.936 687.325 231.676 691.181C210.658 704.143 210.929 715.561 217.775 733.401C211.093 737.226 208.445 753.71 213.104 755.09C227.162 759.262 280.459 760.806 308.374 760.491H308.948C318.568 760.371 328.182 759.98 337.79 759.508C342.594 759.275 347.398 759.098 352.195 758.77C418.264 754.271 405.284 729.885 391.383 733.048C364.47 739.16 289.493 742.784 260.972 720.13C256.95 716.935 253.949 711.68 254.34 706.544C254.971 697.911 270.731 674.463 294.486 670.827C304.138 669.347 331.051 668.351 340.753 667.475C345.658 667.034 357.888 664.797 359.54 660.241C361.538 654.715 335.836 658.697 320.27 658.628C302.921 658.546 277.735 660.676 271.816 654.538C267.926 650.499 276.941 645.622 278.694 644.292C288.781 636.661 302.902 609.552 304.05 584.428C304.737 569.5 303.583 554.528 304.34 539.6C305.449 517.689 323.53 517.589 327.621 517.727C333.409 517.923 334.48 515.295 324.248 514.514C318.083 514.041 311.886 513.814 305.758 513.253C298.558 512.573 293.061 511.804 287.16 507.45C286.41 506.895 278.53 499.699 308.683 500.216C320.397 500.411 332.476 500.846 333.459 498.388C335.022 494.494 317.642 494.469 316.053 494.349C294.839 492.767 288.888 489.938 286.202 484.197C280.843 472.697 308.753 469.074 323.706 469.527C336.87 469.924 348.753 472.855 347.177 469.055C345.475 464.902 314.092 465.936 310.404 460.668Z" fill="#6DA3C1"></path> </svg> 